<svg width="18" height="18" viewBox="0 0 18 18" fill="none" xmlns="http://www.w3.org/2000/svg">
<mask id="mask0_667_512" style="mask-type:alpha" maskUnits="userSpaceOnUse" x="0" y="0" width="18" height="18">
<rect width="18" height="18" fill="#D9D9D9" style="fill:#D9D9D9;fill:color(display-p3 0.8510 0.8510 0.8510);fill-opacity:1;"/>
</mask>
<g mask="url(#mask0_667_512)">
<path d="M2.97239 8.87398C2.28714 7.6791 1.95628 6.70344 1.75677 5.71444C1.46171 4.25173 2.13695 2.8229 3.25556 1.91119C3.72833 1.52587 4.27028 1.65752 4.54984 2.15906L5.18098 3.29135C5.68125 4.18884 5.93138 4.63758 5.88177 5.11333C5.83216 5.58909 5.49482 5.97656 4.82015 6.75153L2.97239 8.87398ZM2.97239 8.87398C4.35938 11.2924 6.53601 13.4703 8.95726 14.8589M8.95726 14.8589C10.1521 15.5441 11.1278 15.875 12.1168 16.0745C13.5795 16.3695 15.0084 15.6943 15.92 14.5757C16.3054 14.1029 16.1738 13.561 15.6722 13.2814L14.5399 12.6502C13.6424 12.15 13.1937 11.8999 12.7179 11.9495C12.2422 11.9991 11.8547 12.3364 11.0797 13.0111L8.95726 14.8589Z" stroke="#252525" style="stroke:#252525;stroke:color(display-p3 0.1464 0.1464 0.1464);stroke-opacity:1;" stroke-width="1.125"/>
</g>
</svg>
