<svg width="33" height="32" viewBox="0 0 33 32" fill="none" xmlns="http://www.w3.org/2000/svg">
<mask id="mask0_667_415" style="mask-type:alpha" maskUnits="userSpaceOnUse" x="0" y="0" width="33" height="32">
<rect x="0.630859" y="0.037796" width="31.9622" height="31.9622" fill="#D9D9D9" style="fill:#D9D9D9;fill:color(display-p3 0.8510 0.8510 0.8510);fill-opacity:1;"/>
</mask>
<g mask="url(#mask0_667_415)">
<path d="M13.7395 28.2334C12.3227 28.2334 11.17 27.0807 11.17 25.6639C11.17 24.2471 12.3227 23.0948 13.7395 23.0948C15.1563 23.0948 16.309 24.2471 16.309 25.6639C16.309 27.0807 15.1563 28.2334 13.7395 28.2334ZM13.7395 24.7076C13.2122 24.7076 12.7828 25.1365 12.7828 25.6639C12.7828 26.1917 13.2118 26.6207 13.7395 26.6207C14.2673 26.6207 14.6963 26.1917 14.6963 25.6639C14.6963 25.1365 14.2673 24.7076 13.7395 24.7076Z" fill="#252525" stroke="#252525" style="fill:#252525;fill:color(display-p3 0.1464 0.1464 0.1464);fill-opacity:1;stroke:#252525;stroke:color(display-p3 0.1464 0.1464 0.1464);stroke-opacity:1;" stroke-width="0.286316"/>
<path d="M22.6717 28.2334C21.255 28.2334 20.1027 27.0807 20.1027 25.6639C20.1027 24.2471 21.255 23.0948 22.6717 23.0948C24.0885 23.0948 25.2412 24.2471 25.2412 25.6639C25.2412 27.0807 24.0881 28.2334 22.6717 28.2334ZM22.6717 24.7076C22.1444 24.7076 21.7154 25.1365 21.7154 25.6639C21.7154 26.1917 22.1444 26.6207 22.6717 26.6207C23.1995 26.6207 23.6285 26.1917 23.6285 25.6639C23.6285 25.1365 23.1991 24.7076 22.6717 24.7076Z" fill="#252525" stroke="#252525" style="fill:#252525;fill:color(display-p3 0.1464 0.1464 0.1464);fill-opacity:1;stroke:#252525;stroke:color(display-p3 0.1464 0.1464 0.1464);stroke-opacity:1;" stroke-width="0.286316"/>
<path d="M24.6198 21.0655H12.1214C10.9053 21.0655 9.86665 20.2255 9.59536 19.0225L7.00131 7.52718C6.9671 7.3754 6.86367 7.24542 6.72444 7.18002L4.57275 6.16802C4.0747 5.93389 3.8579 5.33404 4.08863 4.82823C4.31935 4.32284 4.91088 4.10284 5.40892 4.33697L7.56061 5.34897C8.25398 5.67473 8.76992 6.32061 8.94018 7.07668L11.5342 18.5728C11.5971 18.8522 11.8385 19.0476 12.1214 19.0476H24.6198C24.9015 19.0476 25.1425 18.8534 25.207 18.5749L27.2238 9.76957C27.2815 9.5193 27.1765 9.33724 27.1092 9.25126C27.0416 9.16488 26.8905 9.02036 26.6375 9.02036H11.9189C11.3695 9.02036 10.9244 8.56865 10.9244 8.01118C10.9244 7.45371 11.3695 7.002 11.9189 7.002H26.6375C27.4327 7.002 28.1718 7.3641 28.6666 7.99584C29.1615 8.62759 29.3413 9.44058 29.1615 10.2265L27.1443 19.0322C26.8694 20.2291 25.8315 21.0655 24.6198 21.0655Z" fill="#252525" stroke="#252525" style="fill:#252525;fill:color(display-p3 0.1464 0.1464 0.1464);fill-opacity:1;stroke:#252525;stroke:color(display-p3 0.1464 0.1464 0.1464);stroke-opacity:1;" stroke-width="0.286316"/>
</g>
</svg>
