<svg width="32" height="32" viewBox="0 0 32 32" fill="none" xmlns="http://www.w3.org/2000/svg">
<mask id="mask0_667_403" style="mask-type:luminance" maskUnits="userSpaceOnUse" x="0" y="0" width="32" height="32">
<path d="M31.9208 31.959V0.079071H0.0409546V31.959H31.9208Z" fill="white" stroke="white" style="fill:white;fill-opacity:1;stroke:white;stroke-opacity:1;" stroke-width="0.0827165"/>
</mask>
<g mask="url(#mask0_667_403)">
<path d="M15.4013 26.4817C15.7621 26.6899 16.2071 26.689 16.5673 26.4797L15.9833 25.4738C16.5358 26.4239 16.5664 26.476 16.5683 26.4787H16.5693L16.5712 26.4768C16.5731 26.4757 16.5759 26.4747 16.579 26.4729C16.5855 26.4691 16.5948 26.4641 16.6064 26.4572C16.6295 26.4436 16.6624 26.4233 16.705 26.3977C16.7905 26.3463 16.9143 26.271 17.0703 26.174C17.3819 25.9802 17.8241 25.698 18.3535 25.3401C19.4107 24.6251 20.8267 23.6005 22.249 22.3694C23.6661 21.1427 25.1222 19.6831 26.2343 18.092C27.3385 16.5121 28.1734 14.7032 28.1855 12.801L28.1796 12.4279C28.0229 8.59791 25.0903 5.40081 21.3378 5.4006C19.1338 5.4006 17.2197 6.5138 15.9824 8.19553C14.7451 6.5142 12.8324 5.40072 10.6288 5.4006C6.86431 5.4006 3.98992 8.60788 3.79095 12.4153L3.78021 12.7863C3.76827 14.6947 4.59549 16.5091 5.6972 18.091C6.8066 19.6839 8.26601 21.1445 9.68842 22.3713C11.1162 23.6027 12.5399 24.627 13.6035 25.342C14.1362 25.7001 14.5817 25.9821 14.8954 26.176C15.0523 26.273 15.1765 26.3483 15.2626 26.3996C15.3057 26.4253 15.3399 26.4445 15.3632 26.4582C15.3747 26.4649 15.3832 26.4711 15.3896 26.4748C15.3926 26.4766 15.3955 26.4776 15.3974 26.4787C15.3984 26.4793 15.3997 26.4803 15.4003 26.4807H15.4013C15.4032 26.4778 15.42 26.4494 15.579 26.174L15.4013 26.4817Z" stroke="#252525" style="stroke:#252525;stroke:color(display-p3 0.1464 0.1464 0.1464);stroke-opacity:1;" stroke-width="2.32631" stroke-miterlimit="10" stroke-linecap="round" stroke-linejoin="round"/>
</g>
</svg>
