<svg width="18" height="18" viewBox="0 0 18 18" fill="none" xmlns="http://www.w3.org/2000/svg">
<mask id="mask0_667_519" style="mask-type:alpha" maskUnits="userSpaceOnUse" x="0" y="0" width="18" height="18">
<rect width="18" height="18" fill="#D9D9D9" style="fill:#D9D9D9;fill:color(display-p3 0.8510 0.8510 0.8510);fill-opacity:1;"/>
</mask>
<g mask="url(#mask0_667_519)">
<path d="M1.6989 10.023C1.74615 12.2388 1.76977 13.3467 2.58737 14.1674C3.40496 14.9881 4.54285 15.0167 6.81862 15.0739C8.22121 15.1091 9.61002 15.1091 11.0126 15.0739C13.2884 15.0167 14.4263 14.9881 15.2438 14.1674C16.0615 13.3467 16.0851 12.2388 16.1323 10.023C16.1476 9.31053 16.1476 8.60224 16.1323 7.88984C16.0851 5.67401 16.0615 4.56611 15.2438 3.74541C14.4263 2.92471 13.2884 2.89612 11.0126 2.83894C9.61002 2.80369 8.22121 2.80369 6.81861 2.83893C4.54285 2.89611 3.40496 2.92469 2.58737 3.7454C1.76977 4.5661 1.74615 5.67401 1.6989 7.88977C1.6837 8.60224 1.6837 9.31053 1.6989 10.023Z" stroke="#252525" style="stroke:#252525;stroke:color(display-p3 0.1464 0.1464 0.1464);stroke-opacity:1;" stroke-width="1.125"/>
<path d="M5.30176 6.42657L7.42828 7.68383C8.66804 8.41684 9.16359 8.41684 10.4034 7.68383L12.5299 6.42657" stroke="#252525" style="stroke:#252525;stroke:color(display-p3 0.1464 0.1464 0.1464);stroke-opacity:1;" stroke-width="1.125" stroke-linecap="round"/>
</g>
</svg>
