<svg width="31" height="33" viewBox="0 0 31 33" fill="none" xmlns="http://www.w3.org/2000/svg">
<path d="M21.6969 9.71423C21.5274 9.54995 21.2996 9.45967 21.0636 9.4632C20.8276 9.46674 20.6027 9.56381 20.4382 9.73309L12.4611 17.7101C12.3765 17.7924 12.3091 17.8907 12.2627 17.9992C12.2164 18.1078 12.1921 18.2245 12.1913 18.3425C12.1905 18.4605 12.2131 18.5776 12.2579 18.6868C12.3027 18.796 12.3687 18.8952 12.4522 18.9786C12.5356 19.0621 12.6348 19.1281 12.744 19.1729C12.8532 19.2177 12.9703 19.2403 13.0883 19.2395C13.2063 19.2387 13.323 19.2144 13.4316 19.1681C13.5401 19.1217 13.6384 19.0543 13.7207 18.9697L21.6977 10.9926C21.7832 10.9095 21.8512 10.8101 21.8975 10.7003C21.9439 10.5905 21.9678 10.4725 21.9677 10.3533C21.9676 10.234 21.9436 10.116 21.8971 10.0063C21.8506 9.89651 21.7825 9.7972 21.6969 9.71423ZM11.6206 19.7905C11.4511 19.6262 11.2234 19.5359 10.9874 19.5395C10.7514 19.543 10.5264 19.6401 10.3619 19.8094L9.10237 21.0689C9.01774 21.1512 8.9503 21.2494 8.90398 21.358C8.85766 21.4666 8.83338 21.5832 8.83254 21.7013C8.83171 21.8193 8.85434 21.9363 8.89912 22.0455C8.9439 22.1547 9.00994 22.2539 9.0934 22.3374C9.17686 22.4209 9.27608 22.4869 9.38528 22.5317C9.49449 22.5765 9.6115 22.5991 9.72953 22.5983C9.84756 22.5974 9.96424 22.5731 10.0728 22.5268C10.1814 22.4805 10.2796 22.4131 10.3619 22.3284L11.6214 21.0689C11.7069 20.9858 11.7749 20.8864 11.8213 20.7766C11.8676 20.6668 11.8915 20.5487 11.8914 20.4295C11.8913 20.3103 11.8673 20.1923 11.8208 20.0826C11.7743 19.9728 11.7062 19.8735 11.6206 19.7905Z" fill="#252525" style="fill:#252525;fill:color(display-p3 0.1464 0.1464 0.1464);fill-opacity:1;"/>
<path d="M18.9626 17.2183C17.3336 17.2183 15.9939 18.558 15.9939 20.187C15.9939 21.8161 17.3336 23.1558 18.9626 23.1558C20.5917 23.1558 21.9314 21.8161 21.9314 20.187C21.9314 18.558 20.5917 17.2183 18.9626 17.2183ZM18.9626 18.9995C19.629 18.9995 20.1501 19.5207 20.1501 20.187C20.1501 20.8534 19.629 21.3745 18.9626 21.3745C18.2963 21.3745 17.7751 20.8534 17.7751 20.187C17.7751 19.5207 18.2963 18.9995 18.9626 18.9995Z" fill="#252525" style="fill:#252525;fill:color(display-p3 0.1464 0.1464 0.1464);fill-opacity:1;"/>
<path d="M11.8376 8.90579C10.2086 8.90579 8.8689 10.2455 8.8689 11.8745C8.8689 13.5036 10.2086 14.8433 11.8376 14.8433C13.4667 14.8433 14.8064 13.5036 14.8064 11.8745C14.8064 10.2455 13.4667 8.90579 11.8376 8.90579ZM11.8376 10.687C12.504 10.687 13.0251 11.2082 13.0251 11.8745C13.0251 12.5409 12.504 13.062 11.8376 13.062C11.1713 13.062 10.6501 12.5409 10.6501 11.8745C10.6501 11.2082 11.1713 10.687 11.8376 10.687Z" fill="#252525" style="fill:#252525;fill:color(display-p3 0.1464 0.1464 0.1464);fill-opacity:1;"/>
<path d="M15.4008 0C13.6329 0.202348 12.5324 1.87755 11.0275 2.65648C9.34896 2.90742 7.47361 2.19096 5.91936 3.06192C4.6151 4.26332 4.70644 6.25249 3.95247 7.76468C2.74214 8.94761 0.805358 9.46331 0.0599063 11.0764C-0.285878 12.8156 0.965717 14.3659 1.25075 16.0304C0.966058 17.6948 -0.285648 19.2452 0.0599063 20.9843C0.8039 22.5989 2.74267 23.1123 3.95247 24.296C4.70636 25.8087 4.61475 27.7984 5.91936 29.0002C7.47361 29.8711 9.34896 29.1546 11.0275 29.4056C12.5334 30.1832 13.6328 31.8599 15.4008 32.0621C17.168 31.8591 18.2671 30.1829 19.7727 29.4056C21.4632 29.1003 23.2928 29.644 24.9092 28.9885C25.7132 28.4598 25.0261 27.1025 24.124 27.4248C22.0692 27.8335 19.6313 26.8911 17.9289 28.4877C17.0478 28.9612 16.083 30.4121 15.1664 30.1694C13.4887 29.2817 12.2128 27.2554 10.078 27.586C9.08561 27.4541 7.45044 28.0663 6.84905 27.3329C6.01795 25.6339 6.18089 23.2489 4.26045 22.2698C3.53518 21.5844 1.85176 21.1245 1.79826 20.1786C2.1277 18.3183 3.67383 16.4923 2.69858 14.5706C2.5161 13.5929 1.42799 12.2329 1.94258 11.4403C3.30836 10.1277 5.6364 9.55865 5.98674 7.42947C6.4201 6.53241 6.34356 4.79231 7.22778 4.45557C9.10932 4.19346 11.3316 5.08972 12.8713 3.57297C13.7523 3.09878 14.7163 1.6506 15.634 1.89154C17.3117 2.7795 18.5876 4.80445 20.7222 4.47612C21.7146 4.60794 23.3498 3.99577 23.9512 4.72918C24.785 6.42676 24.6178 8.8134 26.5398 9.79099C27.264 10.4781 28.949 10.9371 29.0019 11.8833C28.6719 13.743 27.1265 15.5688 28.1016 17.4901C28.2844 18.4683 29.372 19.8279 28.8576 20.6216C27.5467 21.9048 25.3037 22.4376 24.8571 24.4378C24.5592 25.0502 24.3949 26.12 25.2637 26.343C26.1136 26.5823 26.5009 25.6053 26.6021 24.9463C27.0136 23.5476 28.7177 23.2113 29.6889 22.263C30.8637 21.5986 31.082 20.1336 30.5395 18.9792C30.153 17.5688 29.0424 16.1189 29.9637 14.6771C30.3799 13.3383 31.4215 11.6883 30.3558 10.3996C29.3381 9.33051 27.9405 8.74047 26.8477 7.76468C26.0938 6.25249 26.1851 4.26332 24.8808 3.06192C23.3266 2.19096 21.4512 2.90742 19.7727 2.65648C18.2737 1.8841 17.161 0.195225 15.4008 0Z" fill="#252525" style="fill:#252525;fill:color(display-p3 0.1464 0.1464 0.1464);fill-opacity:1;"/>
</svg>
